<svg xmlns="http://www.w3.org/2000/svg" xmlns:xlink="http://www.w3.org/1999/xlink" width="500" height="500" viewBox="0 0 500 500">
  <defs>
    <clipPath id="clip-intersection">
      <rect width="500" height="500"/>
    </clipPath>
  </defs>
  <g id="intersection" clip-path="url(#clip-intersection)">
    <path id="Exclusion_11" data-name="Exclusion 11" d="M-483-2020a224.688,224.688,0,0,1-44.942-4.531,221.761,221.761,0,0,1-41.859-12.994,222.939,222.939,0,0,1-37.88-20.561,224.533,224.533,0,0,1-33-27.23,224.524,224.524,0,0,1-27.23-33,222.9,222.9,0,0,1-20.561-37.88,221.779,221.779,0,0,1-12.994-41.859A224.634,224.634,0,0,1-706-2243a224.62,224.62,0,0,1,4.531-44.942,221.879,221.879,0,0,1,12.994-41.859,222.962,222.962,0,0,1,20.561-37.88,224.506,224.506,0,0,1,27.23-33,224.565,224.565,0,0,1,33-27.23,223.026,223.026,0,0,1,37.88-20.561,221.871,221.871,0,0,1,41.859-12.993A224.63,224.63,0,0,1-483-2466a224.629,224.629,0,0,1,44.942,4.531,221.938,221.938,0,0,1,41.86,12.993,223.03,223.03,0,0,1,37.879,20.561,224.633,224.633,0,0,1,33,27.23,224.653,224.653,0,0,1,27.23,33,223.081,223.081,0,0,1,20.56,37.88,221.957,221.957,0,0,1,12.993,41.859A224.62,224.62,0,0,1-260-2243a224.634,224.634,0,0,1-4.531,44.942,221.925,221.925,0,0,1-12.993,41.859,223.022,223.022,0,0,1-20.56,37.88,224.686,224.686,0,0,1-27.23,33,224.608,224.608,0,0,1-33,27.23,223.016,223.016,0,0,1-37.879,20.561,221.833,221.833,0,0,1-41.86,12.994A224.7,224.7,0,0,1-483-2020Zm35.157-37.59a1.144,1.144,0,0,1,.16.011,3.368,3.368,0,0,1,1.916,1.351l3.136,3.8a4.7,4.7,0,0,0,2.248,1.575,4.061,4.061,0,0,0,1.16.17,4.512,4.512,0,0,0,1.421-.24,7.282,7.282,0,0,0,2.626-1.649l.987-.921-1.637-1.756-.987.922a3.229,3.229,0,0,1-2.02,1h-.077a2.306,2.306,0,0,1-1.747-.946l-3.136-3.8a4.079,4.079,0,0,0-2.819-1.637c-.1-.008-.192-.012-.286-.012a3.563,3.563,0,0,0-1.954.6,3.5,3.5,0,0,0,.767-2.194,4.066,4.066,0,0,0-1.437-2.905l-3.575-3.394a2.272,2.272,0,0,1-.815-1.885,3.239,3.239,0,0,1,1.139-1.945l.988-.921-1.637-1.755-.987.921a7.284,7.284,0,0,0-1.828,2.5,4.255,4.255,0,0,0-.259,2.56,4.676,4.676,0,0,0,1.425,2.363l3.575,3.394a3.369,3.369,0,0,1,1.214,2.006c.042.6-.416,1.351-1.363,2.234l-2.414,2.251,1.637,1.755,2.414-2.25A3.637,3.637,0,0,1-447.843-2057.591Zm12.584-17.97a3.033,3.033,0,0,1,2.229,1.1l1.125,1.207-3.73,3.478a5.941,5.941,0,0,0-2.062,3.728,4.6,4.6,0,0,0,1.379,3.677,4.625,4.625,0,0,0,3.452,1.622h.11a5.986,5.986,0,0,0,3.916-1.826,6.031,6.031,0,0,0,1.993-3.295,3.339,3.339,0,0,0-.633-2.691l.017-.015,2.148,2.3,1.931-1.8-7.735-8.294a5.115,5.115,0,0,0-3.812-1.794h-.116a6.553,6.553,0,0,0-4.294,1.994,7.257,7.257,0,0,0-2.322,3.888,4.779,4.779,0,0,0,.842,3.85l1.975-1.841a2.292,2.292,0,0,1-.3-1.994,4.586,4.586,0,0,1,1.38-2.128,3.756,3.756,0,0,1,2.461-1.166Zm19.315-4.355a2.6,2.6,0,0,0-1.747.788,2.614,2.614,0,0,0-.9,1.678,2.09,2.09,0,0,0,.61,1.666,2.1,2.1,0,0,0,1.571.726h.049a2.623,2.623,0,0,0,1.736-.778,2.6,2.6,0,0,0,.907-1.687,2.115,2.115,0,0,0-.621-1.657,2.117,2.117,0,0,0-1.582-.736h-.026Zm-8.58-9.215h-.013a2.6,2.6,0,0,0-1.747.788,2.614,2.614,0,0,0-.9,1.677,2.091,2.091,0,0,0,.61,1.666,2.094,2.094,0,0,0,1.57.726h.05a2.621,2.621,0,0,0,1.736-.778,2.6,2.6,0,0,0,.907-1.687,2.116,2.116,0,0,0-.621-1.657,2.116,2.116,0,0,0-1.582-.736Zm8.869-16.1-2.128,1.985,3.069,3.291,3.332,3.045,1.624-1.514-2.828-3.516-3.069-3.292Zm19.889-7.161a3.034,3.034,0,0,1,2.229,1.1l1.125,1.207-3.73,3.479a5.936,5.936,0,0,0-2.062,3.727,4.607,4.607,0,0,0,1.379,3.678,4.633,4.633,0,0,0,3.455,1.622h.107a5.989,5.989,0,0,0,3.917-1.827,6.043,6.043,0,0,0,1.993-3.295,3.342,3.342,0,0,0-.633-2.69l.017-.016,2.148,2.3,1.931-1.8-7.734-8.293a5.114,5.114,0,0,0-3.812-1.794h-.117a6.55,6.55,0,0,0-4.293,1.993,7.257,7.257,0,0,0-2.322,3.888,4.777,4.777,0,0,0,.841,3.851l1.975-1.842a2.292,2.292,0,0,1-.3-1.994,4.587,4.587,0,0,1,1.38-2.127,3.757,3.757,0,0,1,2.461-1.167h.047Zm32.153-17.618h0l-2.852,2.659,4.608,8.46,1.755-1.636-3.511-9.483Zm-25.713.227-2.128,1.985,3.069,3.291,3.332,3.045,1.624-1.514-2.828-3.517-3.069-3.291Zm22.8-21.258-1.975,1.842,14.936,16.017,1.975-1.843-2.148-2.3.027-.025a3.638,3.638,0,0,0,2.388.909h.091a4.751,4.751,0,0,0,3.138-1.429,5.152,5.152,0,0,0,1.793-3.927,6.425,6.425,0,0,0-1.951-4.292l-3.294-3.532a6.465,6.465,0,0,0-4.166-2.268c-.144-.012-.289-.018-.43-.018a5.215,5.215,0,0,0-3.613,1.533,4.727,4.727,0,0,0-1.624,3.031,3.654,3.654,0,0,0,.713,2.535l-.072.066-2.514-2.783-3.273-3.511Zm29.6-2.533h-.026a2.6,2.6,0,0,0-1.747.787,2.618,2.618,0,0,0-.9,1.678,2.089,2.089,0,0,0,.611,1.666,2.093,2.093,0,0,0,1.567.726h.052a2.613,2.613,0,0,0,1.736-.778,2.6,2.6,0,0,0,.908-1.687,2.11,2.11,0,0,0-.622-1.656A2.114,2.114,0,0,0-336.932-2153.572Zm-8.593-9.215h-.026a2.6,2.6,0,0,0-1.747.787,2.623,2.623,0,0,0-.9,1.678,2.089,2.089,0,0,0,.611,1.666,2.094,2.094,0,0,0,1.568.726h.051a2.612,2.612,0,0,0,1.736-.778,2.6,2.6,0,0,0,.908-1.687,2.111,2.111,0,0,0-.622-1.656A2.114,2.114,0,0,0-345.525-2162.787Zm18.489-25.08-1.975,1.841,14.936,16.017,1.975-1.841-2.148-2.3.027-.025a3.644,3.644,0,0,0,2.392.91h.087a4.76,4.76,0,0,0,3.138-1.43,5.153,5.153,0,0,0,1.793-3.928,6.421,6.421,0,0,0-1.951-4.292l-3.294-3.532a6.468,6.468,0,0,0-4.166-2.268c-.142-.012-.287-.018-.43-.018a5.216,5.216,0,0,0-3.614,1.532,4.729,4.729,0,0,0-1.624,3.031,3.661,3.661,0,0,0,.714,2.535l-.072.067-2.514-2.784-3.273-3.511Zm-9.632,8.982-2.129,1.985,3.069,3.291,3.333,3.046,1.624-1.514-2.828-3.517-3.069-3.291Zm33.261-15.859h0a3.522,3.522,0,0,0-.745,2.188,4.08,4.08,0,0,0,1.436,2.926l3.575,3.394a2.271,2.271,0,0,1,.815,1.885,3.233,3.233,0,0,1-1.139,1.945l-.987.921,1.636,1.755.987-.921a7.282,7.282,0,0,0,1.828-2.5,4.218,4.218,0,0,0,.249-2.57,4.693,4.693,0,0,0-1.414-2.353l-3.576-3.394a3.3,3.3,0,0,1-1.2-2.016c-.036-.606.419-1.354,1.351-2.224l2.414-2.251-1.637-1.755-2.414,2.251a3.638,3.638,0,0,1-2.165,1.214,1.14,1.14,0,0,1-.159-.011,3.374,3.374,0,0,1-1.916-1.352l-3.136-3.8a4.688,4.688,0,0,0-2.258-1.586,4.06,4.06,0,0,0-1.136-.163,4.551,4.551,0,0,0-1.435.243,7.283,7.283,0,0,0-2.626,1.649l-.987.921,1.637,1.755.987-.921a3.237,3.237,0,0,1,2.02-1h.076a2.31,2.31,0,0,1,1.749.947l3.136,3.8a4.068,4.068,0,0,0,2.8,1.637c.093.008.186.011.276.011A3.549,3.549,0,0,0-303.407-2194.743Zm-99.725-29.035v4.08h2.3a12.384,12.384,0,0,0,5.176-.994,7.181,7.181,0,0,0,3.29-2.907,7.968,7.968,0,0,0,.969-4.564l-.51-8.365a5.619,5.619,0,0,1,.841-3.9c.66-.795,2.093-1.2,4.259-1.2h5.61v-4.081h-5.61c-2.2,0-3.64-.4-4.284-1.2a5.716,5.716,0,0,1-.816-3.9l.51-8.365a7.97,7.97,0,0,0-.969-4.59,7.224,7.224,0,0,0-3.29-2.881,12.384,12.384,0,0,0-5.176-.994h-2.3v4.08h2.3a5.506,5.506,0,0,1,3.672,1.1,3.87,3.87,0,0,1,1.173,3.29l-.51,8.365a6.908,6.908,0,0,0,1.581,5.279,5.942,5.942,0,0,0,3.5,1.839,5.979,5.979,0,0,0-3.472,1.859,6.932,6.932,0,0,0-1.607,5.3l.51,8.365a3.872,3.872,0,0,1-1.173,3.29,5.5,5.5,0,0,1-3.672,1.1Zm-183.6-21.93v4.081h5.61c2.2,0,3.64.4,4.284,1.2a5.73,5.73,0,0,1,.816,3.9l-.51,8.365a7.951,7.951,0,0,0,.969,4.564,7.172,7.172,0,0,0,3.289,2.907,12.378,12.378,0,0,0,5.176.994h2.295v-4.08H-567.1a5.5,5.5,0,0,1-3.672-1.1,3.864,3.864,0,0,1-1.173-3.29l.51-8.365a6.939,6.939,0,0,0-1.607-5.3,5.992,5.992,0,0,0-3.473-1.859,5.946,5.946,0,0,0,3.5-1.839,6.916,6.916,0,0,0,1.581-5.279l-.51-8.365a3.861,3.861,0,0,1,1.173-3.29,5.5,5.5,0,0,1,3.672-1.1h2.295v-4.08H-567.1a12.378,12.378,0,0,0-5.176.994,7.217,7.217,0,0,0-3.29,2.881,7.95,7.95,0,0,0-.969,4.59l.51,8.365a5.726,5.726,0,0,1-.816,3.9c-.644.795-2.085,1.2-4.284,1.2Zm130.815,4.081a10.094,10.094,0,0,0-6.885,2.244,7.824,7.824,0,0,0-2.551,6.171,7.845,7.845,0,0,0,2.551,6.145,10.173,10.173,0,0,0,6.987,2.27,10.261,10.261,0,0,0,6.3-1.785,5.682,5.682,0,0,0,2.332-4.08h.04v5.355h4.488v-19.278a8.661,8.661,0,0,0-2.805-6.783,11.137,11.137,0,0,0-7.65-2.5,12.333,12.333,0,0,0-7.394,2.142,8.12,8.12,0,0,0-3.417,5.763h4.59a3.9,3.9,0,0,1,1.938-2.83,7.816,7.816,0,0,1,4.182-1.046,6.394,6.394,0,0,1,4.412,1.4,5.134,5.134,0,0,1,1.555,4v2.805Zm-58.65,9.18a4.446,4.446,0,0,0-3.06,1.045,3.556,3.556,0,0,0-1.173,2.78,3.555,3.555,0,0,0,1.173,2.779,4.446,4.446,0,0,0,3.06,1.046,4.427,4.427,0,0,0,3.085-1.046,3.594,3.594,0,0,0,1.147-2.779,3.6,3.6,0,0,0-1.147-2.78A4.43,4.43,0,0,0-514.568-2232.448Zm-33.15-9.18a10.094,10.094,0,0,0-6.885,2.244,7.825,7.825,0,0,0-2.551,6.171,7.844,7.844,0,0,0,2.551,6.145,10.173,10.173,0,0,0,6.987,2.27,10.261,10.261,0,0,0,6.3-1.785,5.684,5.684,0,0,0,2.332-4.08h.04v5.355h4.488v-19.278a8.661,8.661,0,0,0-2.805-6.783,11.137,11.137,0,0,0-7.65-2.5,12.332,12.332,0,0,0-7.394,2.142,8.12,8.12,0,0,0-3.417,5.763h4.59a3.9,3.9,0,0,1,1.938-2.83,7.816,7.816,0,0,1,4.182-1.046,6.394,6.394,0,0,1,4.412,1.4,5.134,5.134,0,0,1,1.555,4v2.805Zm33.15-12.24a4.446,4.446,0,0,0-3.06,1.045,3.556,3.556,0,0,0-1.173,2.78,3.555,3.555,0,0,0,1.173,2.779,4.445,4.445,0,0,0,3.06,1.046,4.427,4.427,0,0,0,3.085-1.046,3.593,3.593,0,0,0,1.147-2.779,3.6,3.6,0,0,0-1.147-2.78A4.43,4.43,0,0,0-514.568-2253.868Zm89.046-8.671v7.65l.612,7.65h3.774l.562-7.65v-7.65Zm-61.2,0v7.65l.612,7.65h3.774l.562-7.65v-7.65Zm54.305,199.165a2.718,2.718,0,0,1-2.03-.951,2.7,2.7,0,0,1-.821-2.023,2.959,2.959,0,0,1,1.046-2l3.686-3.437,1.6,1.712a3,3,0,0,1,.779,2.638,4.994,4.994,0,0,1-1.649,2.85,3.981,3.981,0,0,1-2.462,1.209C-432.322-2063.375-432.371-2063.374-432.416-2063.374Zm39.493-36.828a2.72,2.72,0,0,1-2.03-.95,2.706,2.706,0,0,1-.821-2.024,2.958,2.958,0,0,1,1.047-2l3.685-3.437,1.6,1.712a3,3,0,0,1,.779,2.638,4.989,4.989,0,0,1-1.649,2.85,3.974,3.974,0,0,1-2.462,1.209C-392.827-2100.2-392.876-2100.2-392.923-2100.2Zm40.173-37.736h0c-.079,0-.159,0-.238-.009a4.137,4.137,0,0,1-2.7-1.463l-3.069-3.291a4.138,4.138,0,0,1-1.272-2.794,3.425,3.425,0,0,1,1.2-2.558,3.653,3.653,0,0,1,2.51-1.1c.055,0,.109,0,.16,0a4.075,4.075,0,0,1,2.729,1.475l3.069,3.292a4.069,4.069,0,0,1,1.282,2.825,3.6,3.6,0,0,1-1.28,2.588A3.471,3.471,0,0,1-352.75-2137.938Zm39.493-36.828c-.077,0-.157,0-.238-.009a4.125,4.125,0,0,1-2.7-1.463l-3.069-3.291a4.125,4.125,0,0,1-1.272-2.793,3.422,3.422,0,0,1,1.2-2.559,3.656,3.656,0,0,1,2.509-1.1c.055,0,.109,0,.161,0a4.07,4.07,0,0,1,2.729,1.475l3.069,3.291a4.071,4.071,0,0,1,1.282,2.825,3.605,3.605,0,0,1-1.279,2.587A3.473,3.473,0,0,1-313.257-2174.766Zm-141.436-53.654a6.757,6.757,0,0,1-4.463-1.351,4.6,4.6,0,0,1-1.607-3.7,4.6,4.6,0,0,1,1.327-3.468,5.026,5.026,0,0,1,3.621-1.275h8.568v3.978a5.1,5.1,0,0,1-2.091,4.182A8.485,8.485,0,0,1-454.694-2228.42Zm-91.8,0a6.757,6.757,0,0,1-4.463-1.351,4.6,4.6,0,0,1-1.607-3.7,4.6,4.6,0,0,1,1.327-3.468,5.026,5.026,0,0,1,3.621-1.275h8.568v3.978a5.1,5.1,0,0,1-2.091,4.182A8.485,8.485,0,0,1-546.494-2228.42Z" transform="translate(621.5 2381.5)" fill="rgba(245,64,64,0.5)"/>
    <path id="Exclusion_10" data-name="Exclusion 10" d="M-483-2020a224.688,224.688,0,0,1-44.942-4.531,221.761,221.761,0,0,1-41.859-12.994,222.939,222.939,0,0,1-37.88-20.561,224.533,224.533,0,0,1-33-27.23,224.524,224.524,0,0,1-27.23-33,222.9,222.9,0,0,1-20.561-37.88,221.779,221.779,0,0,1-12.994-41.859A224.634,224.634,0,0,1-706-2243a224.62,224.62,0,0,1,4.531-44.942,221.879,221.879,0,0,1,12.994-41.859,222.962,222.962,0,0,1,20.561-37.88,224.506,224.506,0,0,1,27.23-33,224.565,224.565,0,0,1,33-27.23,223.026,223.026,0,0,1,37.88-20.561,221.871,221.871,0,0,1,41.859-12.993A224.63,224.63,0,0,1-483-2466a224.629,224.629,0,0,1,44.942,4.531,221.938,221.938,0,0,1,41.86,12.993,223.03,223.03,0,0,1,37.879,20.561,224.633,224.633,0,0,1,33,27.23,224.653,224.653,0,0,1,27.23,33,223.081,223.081,0,0,1,20.56,37.88,221.957,221.957,0,0,1,12.993,41.859A224.62,224.62,0,0,1-260-2243a224.634,224.634,0,0,1-4.531,44.942,221.925,221.925,0,0,1-12.993,41.859,223.022,223.022,0,0,1-20.56,37.88,224.686,224.686,0,0,1-27.23,33,224.608,224.608,0,0,1-33,27.23,223.016,223.016,0,0,1-37.879,20.561,221.833,221.833,0,0,1-41.86,12.994A224.7,224.7,0,0,1-483-2020Zm79.867-203.778v4.08h2.3a12.384,12.384,0,0,0,5.176-.994,7.187,7.187,0,0,0,3.29-2.907,7.972,7.972,0,0,0,.969-4.565l-.51-8.364a5.619,5.619,0,0,1,.841-3.9c.66-.8,2.092-1.2,4.259-1.2h5.61v-4.08h-5.61c-2.2,0-3.641-.4-4.284-1.2a5.714,5.714,0,0,1-.816-3.9l.51-8.364a7.97,7.97,0,0,0-.969-4.59,7.228,7.228,0,0,0-3.29-2.882,12.394,12.394,0,0,0-5.176-.994h-2.3v4.081h2.3a5.506,5.506,0,0,1,3.672,1.1,3.87,3.87,0,0,1,1.173,3.29l-.51,8.364a6.905,6.905,0,0,0,1.581,5.278,5.942,5.942,0,0,0,3.5,1.839,5.981,5.981,0,0,0-3.472,1.859,6.932,6.932,0,0,0-1.607,5.3l.51,8.364a3.869,3.869,0,0,1-1.173,3.289,5.5,5.5,0,0,1-3.672,1.1Zm-177.99-17.851c2.2,0,3.641.4,4.284,1.2a5.73,5.73,0,0,1,.816,3.9l-.51,8.364a7.956,7.956,0,0,0,.969,4.565,7.177,7.177,0,0,0,3.289,2.907,12.378,12.378,0,0,0,5.176.994h2.295v-4.08H-567.1a5.5,5.5,0,0,1-3.672-1.1,3.861,3.861,0,0,1-1.173-3.289l.51-8.364a6.939,6.939,0,0,0-1.607-5.3,5.987,5.987,0,0,0-3.473-1.859,5.937,5.937,0,0,0,3.5-1.839,6.912,6.912,0,0,0,1.581-5.278l-.51-8.364a3.861,3.861,0,0,1,1.173-3.29,5.5,5.5,0,0,1,3.672-1.1h2.295v-4.081H-567.1a12.389,12.389,0,0,0-5.176.994,7.231,7.231,0,0,0-3.29,2.882,7.95,7.95,0,0,0-.969,4.59l.51,8.364a5.723,5.723,0,0,1-.816,3.9c-.644.8-2.085,1.2-4.284,1.2h-5.61v4.08Zm121.737,10.966h.062a6.185,6.185,0,0,0,2.03,4,8.081,8.081,0,0,0,5.558,1.861,8.763,8.763,0,0,0,6.783-2.8,10.921,10.921,0,0,0,2.55-7.6v-8.211a11,11,0,0,0-2.55-7.65,8.763,8.763,0,0,0-6.783-2.805,8.038,8.038,0,0,0-5.533,1.887,6.212,6.212,0,0,0-2.052,3.978h-.167l.1-6.375v-8.16h-4.59v37.23h4.59v-5.354Zm-55.182-1.786a4.446,4.446,0,0,0-3.06,1.046,3.553,3.553,0,0,0-1.173,2.779,3.557,3.557,0,0,0,1.173,2.78,4.447,4.447,0,0,0,3.06,1.045,4.431,4.431,0,0,0,3.085-1.045,3.6,3.6,0,0,0,1.147-2.78,3.591,3.591,0,0,0-1.147-2.779A4.427,4.427,0,0,0-514.568-2232.449Zm-36.618,1.786h.062a6.185,6.185,0,0,0,2.029,4,8.081,8.081,0,0,0,5.558,1.861,8.763,8.763,0,0,0,6.783-2.8,10.921,10.921,0,0,0,2.55-7.6v-8.211a11,11,0,0,0-2.55-7.65,8.764,8.764,0,0,0-6.783-2.805,8.038,8.038,0,0,0-5.533,1.887,6.213,6.213,0,0,0-2.052,3.978h-.167l.1-6.375v-8.16h-4.59v37.23h4.59v-5.354Zm36.618-23.206a4.445,4.445,0,0,0-3.06,1.046,3.553,3.553,0,0,0-1.173,2.779,3.557,3.557,0,0,0,1.173,2.78,4.442,4.442,0,0,0,3.06,1.045,4.426,4.426,0,0,0,3.085-1.045,3.594,3.594,0,0,0,1.147-2.78,3.593,3.593,0,0,0-1.147-2.779A4.426,4.426,0,0,0-514.568-2253.869Zm89.046-8.67v7.65l.612,7.65h3.774l.562-7.65v-7.65Zm-61.2,0v7.65l.612,7.65h3.774l.562-7.65v-7.65Zm-184.121-18.052a1.143,1.143,0,0,1,.16.011,3.367,3.367,0,0,1,1.916,1.351l3.136,3.8a4.686,4.686,0,0,0,2.247,1.575,4.064,4.064,0,0,0,1.161.17,4.523,4.523,0,0,0,1.421-.24,7.288,7.288,0,0,0,2.625-1.649l.987-.921-1.636-1.755-.987.921a3.233,3.233,0,0,1-2.02,1h-.078a2.3,2.3,0,0,1-1.746-.946l-3.137-3.8a4.08,4.08,0,0,0-2.819-1.637c-.1-.008-.193-.012-.287-.012a3.558,3.558,0,0,0-1.953.605,3.493,3.493,0,0,0,.767-2.194,4.067,4.067,0,0,0-1.437-2.905l-3.575-3.393a2.277,2.277,0,0,1-.815-1.886,3.236,3.236,0,0,1,1.14-1.944l.987-.921-1.637-1.756-.987.921a7.28,7.28,0,0,0-1.828,2.5,4.256,4.256,0,0,0-.259,2.56,4.681,4.681,0,0,0,1.425,2.363l3.575,3.393a3.369,3.369,0,0,1,1.214,2.006c.042.6-.416,1.353-1.363,2.235l-2.413,2.25,1.636,1.756,2.414-2.251A3.637,3.637,0,0,1-670.843-2280.591Zm12.584-17.97a3.034,3.034,0,0,1,2.229,1.1l1.125,1.207-3.73,3.478a5.938,5.938,0,0,0-2.062,3.727,4.606,4.606,0,0,0,1.379,3.678,4.632,4.632,0,0,0,3.454,1.622h.108a5.99,5.99,0,0,0,3.917-1.827,6.043,6.043,0,0,0,1.994-3.295,3.344,3.344,0,0,0-.633-2.691l.017-.015,2.148,2.3,1.93-1.8-7.734-8.293a5.115,5.115,0,0,0-3.813-1.794h-.116a6.551,6.551,0,0,0-4.293,1.994,7.256,7.256,0,0,0-2.322,3.889,4.773,4.773,0,0,0,.841,3.849l1.975-1.84a2.3,2.3,0,0,1-.3-2,4.59,4.59,0,0,1,1.38-2.128,3.758,3.758,0,0,1,2.461-1.166h.047Zm19.315-4.355a2.6,2.6,0,0,0-1.747.788,2.614,2.614,0,0,0-.9,1.678,2.09,2.09,0,0,0,.61,1.666,2.1,2.1,0,0,0,1.568.726h.052a2.617,2.617,0,0,0,1.736-.778,2.606,2.606,0,0,0,.908-1.687,2.111,2.111,0,0,0-.622-1.656,2.118,2.118,0,0,0-1.585-.736Zm-8.567-9.214h-.026a2.6,2.6,0,0,0-1.747.787,2.615,2.615,0,0,0-.9,1.678,2.09,2.09,0,0,0,.61,1.666,2.1,2.1,0,0,0,1.568.726h.052a2.613,2.613,0,0,0,1.736-.778,2.606,2.606,0,0,0,.908-1.687,2.111,2.111,0,0,0-.622-1.656A2.114,2.114,0,0,0-647.511-2312.131Zm8.857-16.1-2.128,1.985,3.069,3.291,3.332,3.046,1.624-1.514-2.828-3.516-3.068-3.291Zm19.888-7.161a3.033,3.033,0,0,1,2.229,1.1l1.125,1.207-3.73,3.479a5.939,5.939,0,0,0-2.062,3.727,4.605,4.605,0,0,0,1.379,3.678,4.633,4.633,0,0,0,3.455,1.622h.107a5.99,5.99,0,0,0,3.917-1.827,6.039,6.039,0,0,0,1.993-3.295,3.344,3.344,0,0,0-.633-2.691l.017-.015,2.148,2.3,1.931-1.8-7.734-8.293a5.113,5.113,0,0,0-3.811-1.794h-.117a6.551,6.551,0,0,0-4.294,1.993,7.258,7.258,0,0,0-2.322,3.889,4.786,4.786,0,0,0,.841,3.851l1.975-1.842a2.3,2.3,0,0,1-.3-2,4.612,4.612,0,0,1,1.38-2.127,3.755,3.755,0,0,1,2.461-1.167Zm32.153-17.618h0l-2.852,2.66,4.608,8.461,1.755-1.637-3.511-9.483Zm-25.712.227-2.128,1.985,3.069,3.291,3.332,3.046,1.625-1.514-2.828-3.516-3.069-3.291Zm22.8-21.258-1.975,1.842,14.936,16.017,1.975-1.842-2.148-2.3.027-.025a3.64,3.64,0,0,0,2.391.91h.088a4.758,4.758,0,0,0,3.138-1.43,5.149,5.149,0,0,0,1.793-3.927,6.42,6.42,0,0,0-1.951-4.292l-3.294-3.533a6.466,6.466,0,0,0-4.166-2.268c-.144-.012-.289-.018-.43-.018a5.215,5.215,0,0,0-3.613,1.533,4.728,4.728,0,0,0-1.624,3.031,3.659,3.659,0,0,0,.714,2.535l-.072.067-2.514-2.784-3.273-3.511Zm29.6-2.533h-.026a2.608,2.608,0,0,0-1.747.787,2.617,2.617,0,0,0-.9,1.678,2.086,2.086,0,0,0,.61,1.666,2.093,2.093,0,0,0,1.568.726h.052a2.613,2.613,0,0,0,1.735-.778,2.6,2.6,0,0,0,.908-1.687,2.113,2.113,0,0,0-.621-1.656A2.117,2.117,0,0,0-559.932-2376.572Zm-8.593-9.215h-.026a2.608,2.608,0,0,0-1.747.787,2.617,2.617,0,0,0-.9,1.678,2.091,2.091,0,0,0,.61,1.667,2.1,2.1,0,0,0,1.568.725h.052a2.612,2.612,0,0,0,1.735-.778,2.6,2.6,0,0,0,.908-1.687,2.113,2.113,0,0,0-.621-1.656A2.117,2.117,0,0,0-568.526-2385.787Zm18.489-25.079-1.975,1.84,14.935,16.017,1.975-1.841-2.148-2.3.027-.025a3.643,3.643,0,0,0,2.392.91h.087a4.757,4.757,0,0,0,3.138-1.429,5.158,5.158,0,0,0,1.794-3.928,6.423,6.423,0,0,0-1.952-4.292l-3.294-3.532a6.469,6.469,0,0,0-4.166-2.268c-.142-.012-.287-.018-.43-.018a5.213,5.213,0,0,0-3.613,1.532,4.724,4.724,0,0,0-1.624,3.031,3.655,3.655,0,0,0,.713,2.535l-.072.067-2.514-2.784-3.273-3.51Zm-9.632,8.981-2.129,1.985,3.069,3.291,3.333,3.046,1.624-1.514-2.828-3.516-3.069-3.291Zm33.261-15.858h0a3.52,3.52,0,0,0-.745,2.188,4.078,4.078,0,0,0,1.437,2.926l3.575,3.394a2.273,2.273,0,0,1,.815,1.886,3.23,3.23,0,0,1-1.139,1.944l-.987.921,1.636,1.756.987-.921a7.311,7.311,0,0,0,1.829-2.5,4.225,4.225,0,0,0,.248-2.57,4.686,4.686,0,0,0-1.414-2.353l-3.575-3.394a3.3,3.3,0,0,1-1.2-2.016c-.035-.607.42-1.355,1.351-2.224l2.414-2.25-1.637-1.756-2.413,2.251a3.642,3.642,0,0,1-2.164,1.214,1.14,1.14,0,0,1-.16-.011,3.373,3.373,0,0,1-1.917-1.351l-3.136-3.8a4.687,4.687,0,0,0-2.258-1.586,4.049,4.049,0,0,0-1.134-.163,4.566,4.566,0,0,0-1.437.243,7.287,7.287,0,0,0-2.626,1.649l-.987.921,1.637,1.755.987-.921a3.234,3.234,0,0,1,2.02-1h.077a2.3,2.3,0,0,1,1.747.946l3.136,3.8a4.061,4.061,0,0,0,2.8,1.637c.093.008.186.011.276.011A3.551,3.551,0,0,0-526.407-2417.743Zm73.141,188.966a5.82,5.82,0,0,1-4.462-1.785,7.019,7.019,0,0,1-1.658-4.947v-7.65a7.016,7.016,0,0,1,1.658-4.946,5.819,5.819,0,0,1,4.462-1.786,6.125,6.125,0,0,1,4.59,1.734,6.921,6.921,0,0,1,1.683,5v7.65a6.925,6.925,0,0,1-1.683,5A6.127,6.127,0,0,1-453.266-2228.777Zm-91.8,0a5.82,5.82,0,0,1-4.462-1.785,7.019,7.019,0,0,1-1.658-4.947v-7.65a7.016,7.016,0,0,1,1.658-4.946,5.819,5.819,0,0,1,4.462-1.786,6.125,6.125,0,0,1,4.59,1.734,6.92,6.92,0,0,1,1.683,5v7.65a6.924,6.924,0,0,1-1.683,5A6.127,6.127,0,0,1-545.066-2228.777Zm-110.35-57.6a2.72,2.72,0,0,1-2.03-.95,2.707,2.707,0,0,1-.821-2.024,2.957,2.957,0,0,1,1.047-2l3.685-3.438,1.6,1.712a3,3,0,0,1,.778,2.638,4.989,4.989,0,0,1-1.649,2.85,3.973,3.973,0,0,1-2.462,1.208C-655.317-2286.375-655.366-2286.374-655.417-2286.374Zm39.493-36.828a2.722,2.722,0,0,1-2.03-.949,2.715,2.715,0,0,1-.821-2.024,2.965,2.965,0,0,1,1.047-2l3.686-3.437,1.6,1.712a3,3,0,0,1,.778,2.638,4.99,4.99,0,0,1-1.649,2.85,3.97,3.97,0,0,1-2.462,1.209C-615.827-2323.2-615.876-2323.2-615.924-2323.2Zm40.173-37.736c-.078,0-.158,0-.238-.009a4.125,4.125,0,0,1-2.7-1.463l-3.069-3.291a4.125,4.125,0,0,1-1.272-2.793,3.422,3.422,0,0,1,1.2-2.559,3.659,3.659,0,0,1,2.51-1.1c.055,0,.109,0,.161,0a4.073,4.073,0,0,1,2.73,1.475l3.068,3.291a4.071,4.071,0,0,1,1.282,2.825,3.6,3.6,0,0,1-1.279,2.588A3.472,3.472,0,0,1-575.751-2360.938Zm39.493-36.828c-.077,0-.157,0-.238-.009a4.125,4.125,0,0,1-2.7-1.463l-3.069-3.291a4.125,4.125,0,0,1-1.272-2.793,3.426,3.426,0,0,1,1.2-2.559,3.66,3.66,0,0,1,2.51-1.1c.055,0,.109,0,.161,0a4.073,4.073,0,0,1,2.73,1.475l3.069,3.291a4.07,4.07,0,0,1,1.281,2.825,3.6,3.6,0,0,1-1.279,2.587A3.473,3.473,0,0,1-536.258-2397.766Z" transform="translate(844.5 2604.5)" fill="rgba(0,111,255,0.5)"/>
  </g>
</svg>
