<svg xmlns="http://www.w3.org/2000/svg" xmlns:xlink="http://www.w3.org/1999/xlink" width="500" height="500" viewBox="0 0 500 500">
  <defs>
    <clipPath id="clip-null">
      <rect width="500" height="500"/>
    </clipPath>
  </defs>
  <g id="null" clip-path="url(#clip-null)">
    <path id="Exclusion_4" data-name="Exclusion 4" d="M28-895a130.955,130.955,0,0,1-26.2-2.641,129.339,129.339,0,0,1-24.4-7.575A130.013,130.013,0,0,1-44.684-917.2a130.933,130.933,0,0,1-19.24-15.874A130.932,130.932,0,0,1-79.8-952.316,130.016,130.016,0,0,1-91.784-974.4a129.342,129.342,0,0,1-7.575-24.4A130.961,130.961,0,0,1-102-1025a130.959,130.959,0,0,1,2.641-26.2,129.343,129.343,0,0,1,7.575-24.4A130.019,130.019,0,0,1-79.8-1097.684a130.943,130.943,0,0,1,15.874-19.24,130.932,130.932,0,0,1,19.24-15.874A130.02,130.02,0,0,1-22.6-1144.784a129.357,129.357,0,0,1,24.4-7.575A130.963,130.963,0,0,1,28-1155a130.966,130.966,0,0,1,26.2,2.641,129.367,129.367,0,0,1,24.4,7.575,130.02,130.02,0,0,1,22.082,11.986,130.934,130.934,0,0,1,19.24,15.874,130.932,130.932,0,0,1,15.874,19.24,130.017,130.017,0,0,1,11.986,22.082,129.344,129.344,0,0,1,7.575,24.4A130.958,130.958,0,0,1,158-1025a130.96,130.96,0,0,1-2.641,26.2,129.341,129.341,0,0,1-7.575,24.4A130.016,130.016,0,0,1,135.8-952.316a130.931,130.931,0,0,1-15.874,19.24,130.935,130.935,0,0,1-19.24,15.874A130.006,130.006,0,0,1,78.6-905.216a129.341,129.341,0,0,1-24.4,7.575A130.958,130.958,0,0,1,28-895Zm44.2-137.524a9.835,9.835,0,0,0-5.147,1.357,9.065,9.065,0,0,0-3.486,3.867,12.817,12.817,0,0,0-1.231,5.693v.546a10.179,10.179,0,0,0,2.921,7.6,10.417,10.417,0,0,0,7.568,2.852,11.333,11.333,0,0,0,4.805-1.006,8.508,8.508,0,0,0,3.437-2.8l-2.773-3.106a6.119,6.119,0,0,1-5.1,2.363,5.01,5.01,0,0,1-3.486-1.25,5.265,5.265,0,0,1-1.651-3.32H81.519v-2.3c0-3.331-.838-5.94-2.49-7.754A8.807,8.807,0,0,0,72.2-1032.523Zm-26.289,19.277,0,0a6.625,6.625,0,0,0,5.487,2.635,7.211,7.211,0,0,0,6.054-2.842c1.439-1.886,2.168-4.55,2.168-7.92v-.312c0-3.421-.739-6.112-2.2-8a7.272,7.272,0,0,0-6.065-2.841,6.455,6.455,0,0,0-5.136,2.285V-1041H40.582v30h5.079l.254-2.244Zm-62.481-18.886v13.847a8.376,8.376,0,0,0,1.826,5.723,6.707,6.707,0,0,0,5.186,1.953,7.109,7.109,0,0,0,5.781-2.539l.157,2.148H1.7v-21.133H-3.969v14.978a4.089,4.089,0,0,1-3.945,1.994,2.912,2.912,0,0,1-2.256-.826,3.591,3.591,0,0,1-.752-2.478v-13.668Zm101.289,0V-1011h5.645v-13.829c.661-1.439,2.074-2.168,4.2-2.168a15.4,15.4,0,0,1,2.031.157l.078-5.43a5.949,5.949,0,0,0-1.759-.254,5.252,5.252,0,0,0-4.707,2.91l-.156-2.519Zm-57.324,4.2a3.13,3.13,0,0,1,2.48.83,4.043,4.043,0,0,1,.7,2.627V-1011h5.664v-13.5c0-2.67-.565-4.7-1.679-6.026a6.33,6.33,0,0,0-5.117-2A7.287,7.287,0,0,0,23.1-1029.3c-1.01-2.138-2.9-3.222-5.605-3.222a7.458,7.458,0,0,0-6.074,2.754l-.175-2.363H5.954V-1011H11.6v-14.942a3.672,3.672,0,0,1,3.477-1.992,3.162,3.162,0,0,1,2.462.82,4,4,0,0,1,.722,2.656V-1011H23.9l-.02-14.512A3.537,3.537,0,0,1,27.4-1027.933Zm-57.129,0a3.512,3.512,0,0,1,2.6.81,3.679,3.679,0,0,1,.781,2.607V-1011h5.645v-13.653c-.026-2.6-.591-4.589-1.679-5.9a6.156,6.156,0,0,0-5-1.973,7.41,7.41,0,0,0-6.074,2.831l-.175-2.441h-5.313V-1011H-33.3v-14.9A3.9,3.9,0,0,1-29.731-1027.933Zm79.708,12.773a3.788,3.788,0,0,1-3.75-2.227v-8.339a3.737,3.737,0,0,1,3.711-2.207,3.448,3.448,0,0,1,3.028,1.474,8.449,8.449,0,0,1,1.015,4.678,14,14,0,0,1-.41,3.926A3.5,3.5,0,0,1,49.977-1015.16Zm26-8.418H68.121a5.919,5.919,0,0,1,1.338-3.257,3.544,3.544,0,0,1,2.724-1.138,3.657,3.657,0,0,1,2.774,1.03,4.219,4.219,0,0,1,1.015,2.912v.451Z" transform="translate(102 1155)" fill="#8c8c8c"/>
    <path id="Exclusion_5" data-name="Exclusion 5" d="M28-895a130.955,130.955,0,0,1-26.2-2.641,129.339,129.339,0,0,1-24.4-7.575A130.013,130.013,0,0,1-44.684-917.2a130.933,130.933,0,0,1-19.24-15.874A130.932,130.932,0,0,1-79.8-952.316,130.016,130.016,0,0,1-91.784-974.4a129.342,129.342,0,0,1-7.575-24.4A130.961,130.961,0,0,1-102-1025a130.959,130.959,0,0,1,2.641-26.2,129.343,129.343,0,0,1,7.575-24.4A130.019,130.019,0,0,1-79.8-1097.684a130.943,130.943,0,0,1,15.874-19.24,130.932,130.932,0,0,1,19.24-15.874A130.02,130.02,0,0,1-22.6-1144.784a129.357,129.357,0,0,1,24.4-7.575A130.963,130.963,0,0,1,28-1155a130.966,130.966,0,0,1,26.2,2.641,129.367,129.367,0,0,1,24.4,7.575,130.02,130.02,0,0,1,22.082,11.986,130.934,130.934,0,0,1,19.24,15.874,130.932,130.932,0,0,1,15.874,19.24,130.017,130.017,0,0,1,11.986,22.082,129.344,129.344,0,0,1,7.575,24.4A130.958,130.958,0,0,1,158-1025a130.96,130.96,0,0,1-2.641,26.2,129.341,129.341,0,0,1-7.575,24.4A130.016,130.016,0,0,1,135.8-952.316a130.931,130.931,0,0,1-15.874,19.24,130.935,130.935,0,0,1-19.24,15.874A130.006,130.006,0,0,1,78.6-905.216a129.341,129.341,0,0,1-24.4,7.575A130.958,130.958,0,0,1,28-895Zm-8.566-137.133v13.847a8.376,8.376,0,0,0,1.826,5.723,6.707,6.707,0,0,0,5.186,1.953,7.109,7.109,0,0,0,5.781-2.539l.157,2.148H37.7v-21.133H32.031v14.978a4.089,4.089,0,0,1-3.945,1.994,2.912,2.912,0,0,1-2.256-.826,3.591,3.591,0,0,1-.752-2.478v-13.668ZM52.852-1041v30h5.664v-30Zm-10.606,0v30h5.665v-30ZM6.269-1027.933a3.512,3.512,0,0,1,2.6.81,3.679,3.679,0,0,1,.781,2.607V-1011h5.645v-13.653c-.026-2.6-.591-4.589-1.679-5.9a6.156,6.156,0,0,0-5-1.973,7.41,7.41,0,0,0-6.074,2.831l-.175-2.441H-2.949V-1011H2.7v-14.9A3.9,3.9,0,0,1,6.269-1027.933Z" transform="translate(342 1395)" fill="#f1e471"/>
  </g>
</svg>
