<svg xmlns="http://www.w3.org/2000/svg" xmlns:xlink="http://www.w3.org/1999/xlink" width="500" height="500" viewBox="0 0 500 500">
  <defs>
    <clipPath id="clip-superset">
      <rect width="500" height="500"/>
    </clipPath>
  </defs>
  <g id="superset" clip-path="url(#clip-superset)">
    <circle id="Ellipse_5" data-name="Ellipse 5" cx="239" cy="239" r="239" transform="translate(11 11)" fill="#fff"/>
    <g id="Group_2" data-name="Group 2" transform="translate(-45.196 -45)">
      <path id="Exclusion_3" data-name="Exclusion 3" d="M242,484a243.852,243.852,0,0,1-48.772-4.916,240.675,240.675,0,0,1-86.533-36.414A242.712,242.712,0,0,1,19.017,336.2a240.759,240.759,0,0,1-14.1-45.426,244.353,244.353,0,0,1,0-97.543A240.651,240.651,0,0,1,41.33,106.695,242.7,242.7,0,0,1,147.8,19.018a240.766,240.766,0,0,1,45.426-14.1,244.353,244.353,0,0,1,97.543,0A240.692,240.692,0,0,1,377.3,41.33,242.692,242.692,0,0,1,464.982,147.8a240.747,240.747,0,0,1,14.1,45.426,244.354,244.354,0,0,1,0,97.543A240.7,240.7,0,0,1,442.67,377.3,242.718,242.718,0,0,1,336.2,464.982a240.816,240.816,0,0,1-45.426,14.1A243.835,243.835,0,0,1,242,484Zm0-356.243A114.244,114.244,0,1,0,356.243,242,114.374,114.374,0,0,0,242,127.756ZM245.471,89.7a15.66,15.66,0,0,0,2.62,8.961,17.569,17.569,0,0,0,7.606,6.088,26.984,26.984,0,0,0,11.056,2.222c5.8,0,10.482-1.307,13.911-3.884a12.714,12.714,0,0,0,5.167-10.714A13.8,13.8,0,0,0,281.6,82.117c-2.806-2.733-7.341-5.055-13.478-6.9a29.353,29.353,0,0,1-7.606-3.252,5.1,5.1,0,0,1-2.583-4.3,5.322,5.322,0,0,1,2.2-4.426,10.041,10.041,0,0,1,6.179-1.68,9.4,9.4,0,0,1,6.4,2.005,7.126,7.126,0,0,1,2.277,5.619h10.84a15.154,15.154,0,0,0-2.439-8.455,16.069,16.069,0,0,0-6.847-5.764A23.753,23.753,0,0,0,266.5,52.922,26.091,26.091,0,0,0,256.4,54.8a15.737,15.737,0,0,0-6.9,5.221,12.766,12.766,0,0,0-2.4,7.606c0,5.443,3.015,9.832,8.96,13.044a55.582,55.582,0,0,0,8.925,3.6,28.6,28.6,0,0,1,7.8,3.469,5.587,5.587,0,0,1,2.167,4.715,5.135,5.135,0,0,1-2.167,4.39,10.166,10.166,0,0,1-6.035,1.572c-3.452,0-6.078-.733-7.8-2.177s-2.6-3.642-2.6-6.531Zm-46.25-36.06v8.78h15.9v43.829h10.84V62.425h16.115v-8.78Z" transform="translate(53.196 53)" fill="rgba(0,122,204,0.8)"/>
      <path id="Exclusion_2" data-name="Exclusion 2" d="M114.384,228.766a115.228,115.228,0,0,1-23.052-2.324,113.758,113.758,0,0,1-40.9-17.211A114.717,114.717,0,0,1,8.989,158.906a113.806,113.806,0,0,1-6.665-21.471,115.5,115.5,0,0,1,0-46.1,113.757,113.757,0,0,1,17.211-40.9A114.718,114.718,0,0,1,69.861,8.989,113.806,113.806,0,0,1,91.332,2.324a115.5,115.5,0,0,1,46.1,0,113.756,113.756,0,0,1,40.9,17.211A114.716,114.716,0,0,1,219.778,69.86a113.8,113.8,0,0,1,6.665,21.471,115.5,115.5,0,0,1,0,46.1,113.757,113.757,0,0,1-17.211,40.9,114.716,114.716,0,0,1-50.325,41.442,113.805,113.805,0,0,1-21.471,6.665A115.228,115.228,0,0,1,114.384,228.766ZM113.7,126.372a15.664,15.664,0,0,0,2.619,8.96,17.58,17.58,0,0,0,7.606,6.089,26.992,26.992,0,0,0,11.057,2.222c5.8,0,10.482-1.307,13.91-3.884a12.712,12.712,0,0,0,5.167-10.714,13.8,13.8,0,0,0-4.227-10.261c-2.8-2.733-7.339-5.056-13.478-6.9a29.325,29.325,0,0,1-7.606-3.252,5.1,5.1,0,0,1-2.583-4.3,5.323,5.323,0,0,1,2.2-4.427,10.043,10.043,0,0,1,6.178-1.679,9.4,9.4,0,0,1,6.4,2.005,7.124,7.124,0,0,1,2.276,5.619h10.84a15.154,15.154,0,0,0-2.438-8.456,16.067,16.067,0,0,0-6.847-5.763,23.746,23.746,0,0,0-10.045-2.042,26.1,26.1,0,0,0-10.1,1.879,15.751,15.751,0,0,0-6.9,5.221,12.761,12.761,0,0,0-2.4,7.606c0,5.443,3.015,9.831,8.961,13.045a55.594,55.594,0,0,0,8.924,3.595,28.574,28.574,0,0,1,7.8,3.469,5.584,5.584,0,0,1,2.168,4.715,5.136,5.136,0,0,1-2.168,4.39,10.17,10.17,0,0,1-6.034,1.571c-3.453,0-6.079-.732-7.805-2.177s-2.6-3.642-2.6-6.531Zm-42.384,1.012c0,5.155,1.568,9.2,4.661,12.014s7.468,4.245,13.008,4.245a19.679,19.679,0,0,0,9.141-2.1,15.151,15.151,0,0,0,6.269-5.945,17.494,17.494,0,0,0,2.222-8.87V90.311H95.774v36.422a9.048,9.048,0,0,1-1.842,6.071,6.238,6.238,0,0,1-4.95,2.132c-2.326,0-4.052-.62-5.131-1.843s-1.626-3.143-1.626-5.709Z" transform="translate(180.297 180.297)" fill="rgba(247,223,30,0.8)"/>
    </g>
  </g>
</svg>
